<?xml version="1.0" encoding="UTF-8" standalone="no"?>
<!DOCTYPE svg PUBLIC "-//W3C//DTD SVG 1.1//EN"
 "http://www.w3.org/Graphics/SVG/1.1/DTD/svg11.dtd">
<!-- Generated by graphviz version 2.40.1 (20161225.0304)
 -->
<!-- Title: orphans Pages: 1 -->
<svg width="268pt" height="458pt"
 viewBox="0.00 0.00 268.00 458.00" xmlns="http://www.w3.org/2000/svg" xmlns:xlink="http://www.w3.org/1999/xlink">
<g id="graph0" class="graph" transform="scale(1 1) rotate(0) translate(4 454)">
<title>orphans</title>
<polygon fill="#ffffff" stroke="transparent" points="-4,4 -4,-454 264,-454 264,4 -4,4"/>
<!-- cor_pref_preference -->
<g id="node1" class="node">
<title>cor_pref_preference</title>
<g id="a_node1"><a xlink:href="../../tables/cor_pref_preference.html" xlink:title="cor_pref_preference" target="_top">
<polygon fill="#ffffff" stroke="transparent" points="8,-4 8,-446 252,-446 252,-4 8,-4"/>
<polygon fill="#f5f5f5" stroke="transparent" points="10,-421 10,-444 250,-444 250,-421 10,-421"/>
<polygon fill="none" stroke="#000000" points="10,-421 10,-444 250,-444 250,-421 10,-421"/>
<text text-anchor="start" x="15" y="-429.6" font-family="Helvetica,sans-Serif" font-weight="bold" font-size="11.00" fill="#000000">cor_pref_preference</text>
<text text-anchor="start" x="215.0437" y="-429.1" font-family="Helvetica,sans-Serif" font-size="11.00" fill="#000000">[table]</text>
<polygon fill="none" stroke="#000000" points="10,-399 10,-421 166,-421 166,-399 10,-399"/>
<image xlink:href="../../images/primaryKeys.png" width="11px" height="12px" preserveAspectRatio="xMinYMin meet" x="15" y="-416"/>
<text text-anchor="start" x="30" y="-406.1" font-family="Helvetica,sans-Serif" font-size="11.00" fill="#000000">c_pk</text>
<polygon fill="none" stroke="#000000" points="166,-399 166,-421 250,-421 250,-399 166,-399"/>
<text text-anchor="start" x="169" y="-406.7" font-family="Helvetica,sans-Serif" font-size="11.00" fill="#000000">int8[19]</text>
<polygon fill="none" stroke="#000000" points="10,-377 10,-399 166,-399 166,-377 10,-377"/>
<text text-anchor="start" x="30" y="-384.1" font-family="Helvetica,sans-Serif" font-size="11.00" fill="#000000">c_created</text>
<polygon fill="none" stroke="#000000" points="166,-377 166,-399 250,-399 250,-377 166,-377"/>
<text text-anchor="start" x="168.8807" y="-384.7" font-family="Helvetica,sans-Serif" font-size="11.00" fill="#000000">timestamp[29,6]</text>
<polygon fill="none" stroke="#000000" points="10,-355 10,-377 166,-377 166,-355 10,-355"/>
<text text-anchor="start" x="30" y="-362.1" font-family="Helvetica,sans-Serif" font-size="11.00" fill="#000000">c_created_by</text>
<polygon fill="none" stroke="#000000" points="166,-355 166,-377 250,-377 250,-355 166,-355"/>
<text text-anchor="start" x="169" y="-362.7" font-family="Helvetica,sans-Serif" font-size="11.00" fill="#000000">varchar[255]</text>
<polygon fill="none" stroke="#000000" points="10,-333 10,-355 166,-355 166,-333 10,-333"/>
<text text-anchor="start" x="30" y="-340.1" font-family="Helvetica,sans-Serif" font-size="11.00" fill="#000000">c_updated_by</text>
<polygon fill="none" stroke="#000000" points="166,-333 166,-355 250,-355 250,-333 166,-333"/>
<text text-anchor="start" x="169" y="-340.7" font-family="Helvetica,sans-Serif" font-size="11.00" fill="#000000">varchar[255]</text>
<polygon fill="none" stroke="#000000" points="10,-311 10,-333 166,-333 166,-311 10,-311"/>
<text text-anchor="start" x="30" y="-318.1" font-family="Helvetica,sans-Serif" font-size="11.00" fill="#000000">c_updated</text>
<polygon fill="none" stroke="#000000" points="166,-311 166,-333 250,-333 250,-311 166,-311"/>
<text text-anchor="start" x="168.8807" y="-318.7" font-family="Helvetica,sans-Serif" font-size="11.00" fill="#000000">timestamp[29,6]</text>
<polygon fill="none" stroke="#000000" points="10,-289 10,-311 166,-311 166,-289 10,-289"/>
<text text-anchor="start" x="30" y="-296.1" font-family="Helvetica,sans-Serif" font-size="11.00" fill="#000000">c_ol</text>
<polygon fill="none" stroke="#000000" points="166,-289 166,-311 250,-311 250,-289 166,-289"/>
<text text-anchor="start" x="169" y="-296.7" font-family="Helvetica,sans-Serif" font-size="11.00" fill="#000000">int8[19]</text>
<polygon fill="#ffffff" stroke="transparent" points="10,-267 10,-289 166,-289 166,-267 10,-267"/>
<polygon fill="none" stroke="#000000" points="10,-267 10,-289 166,-289 166,-267 10,-267"/>
<text text-anchor="start" x="30" y="-274.1" font-family="Helvetica,sans-Serif" font-size="11.00" fill="#000000">c_pid</text>
<polygon fill="none" stroke="#000000" points="166,-267 166,-289 250,-289 250,-267 166,-267"/>
<text text-anchor="start" x="169" y="-274.7" font-family="Helvetica,sans-Serif" font-size="11.00" fill="#000000">varchar[255]</text>
<polygon fill="none" stroke="#000000" points="10,-245 10,-267 166,-267 166,-245 10,-245"/>
<text text-anchor="start" x="30" y="-252.1" font-family="Helvetica,sans-Serif" font-size="11.00" fill="#000000">c_def_value</text>
<polygon fill="none" stroke="#000000" points="166,-245 166,-267 250,-267 250,-245 166,-245"/>
<text text-anchor="start" x="169" y="-252.7" font-family="Helvetica,sans-Serif" font-size="11.00" fill="#000000">varchar[4096]</text>
<polygon fill="none" stroke="#000000" points="10,-223 10,-245 166,-245 166,-223 10,-223"/>
<text text-anchor="start" x="30" y="-230.1" font-family="Helvetica,sans-Serif" font-size="11.00" fill="#000000">c_description</text>
<polygon fill="none" stroke="#000000" points="166,-223 166,-245 250,-245 250,-223 166,-223"/>
<text text-anchor="start" x="169" y="-230.7" font-family="Helvetica,sans-Serif" font-size="11.00" fill="#000000">varchar[255]</text>
<polygon fill="none" stroke="#000000" points="10,-201 10,-223 166,-223 166,-201 10,-201"/>
<text text-anchor="start" x="30" y="-208.1" font-family="Helvetica,sans-Serif" font-size="11.00" fill="#000000">c_from_file</text>
<polygon fill="none" stroke="#000000" points="166,-201 166,-223 250,-223 250,-201 166,-201"/>
<text text-anchor="start" x="169" y="-208.7" font-family="Helvetica,sans-Serif" font-size="11.00" fill="#000000">bool[1]</text>
<polygon fill="none" stroke="#000000" points="10,-179 10,-201 166,-201 166,-179 10,-179"/>
<text text-anchor="start" x="30" y="-186.1" font-family="Helvetica,sans-Serif" font-size="11.00" fill="#000000">c_group_name</text>
<polygon fill="none" stroke="#000000" points="166,-179 166,-201 250,-201 250,-179 166,-179"/>
<text text-anchor="start" x="169" y="-186.7" font-family="Helvetica,sans-Serif" font-size="11.00" fill="#000000">varchar[36]</text>
<polygon fill="#ffffff" stroke="transparent" points="10,-157 10,-179 166,-179 166,-157 10,-157"/>
<polygon fill="none" stroke="#000000" points="10,-157 10,-179 166,-179 166,-157 10,-157"/>
<text text-anchor="start" x="30" y="-164.1" font-family="Helvetica,sans-Serif" font-size="11.00" fill="#000000">c_key</text>
<polygon fill="none" stroke="#000000" points="166,-157 166,-179 250,-179 250,-157 166,-157"/>
<text text-anchor="start" x="169" y="-164.7" font-family="Helvetica,sans-Serif" font-size="11.00" fill="#000000">varchar[60]</text>
<polygon fill="none" stroke="#000000" points="10,-135 10,-157 166,-157 166,-135 10,-135"/>
<text text-anchor="start" x="30" y="-142.1" font-family="Helvetica,sans-Serif" font-size="11.00" fill="#000000">c_max_value</text>
<polygon fill="none" stroke="#000000" points="166,-135 166,-157 250,-157 250,-135 166,-135"/>
<text text-anchor="start" x="169" y="-142.7" font-family="Helvetica,sans-Serif" font-size="11.00" fill="#000000">varchar[4096]</text>
<polygon fill="none" stroke="#000000" points="10,-113 10,-135 166,-135 166,-113 10,-113"/>
<text text-anchor="start" x="30" y="-120.1" font-family="Helvetica,sans-Serif" font-size="11.00" fill="#000000">c_min_value</text>
<polygon fill="none" stroke="#000000" points="166,-113 166,-135 250,-135 250,-113 166,-113"/>
<text text-anchor="start" x="169" y="-120.7" font-family="Helvetica,sans-Serif" font-size="11.00" fill="#000000">varchar[4096]</text>
<polygon fill="#ffffff" stroke="transparent" points="10,-91 10,-113 166,-113 166,-91 10,-91"/>
<polygon fill="none" stroke="#000000" points="10,-91 10,-113 166,-113 166,-91 10,-91"/>
<text text-anchor="start" x="30" y="-98.1" font-family="Helvetica,sans-Serif" font-size="11.00" fill="#000000">c_owner</text>
<polygon fill="none" stroke="#000000" points="166,-91 166,-113 250,-113 250,-91 166,-91"/>
<text text-anchor="start" x="169" y="-98.7" font-family="Helvetica,sans-Serif" font-size="11.00" fill="#000000">varchar[60]</text>
<polygon fill="none" stroke="#000000" points="10,-69 10,-91 166,-91 166,-69 10,-69"/>
<text text-anchor="start" x="30" y="-76.1" font-family="Helvetica,sans-Serif" font-size="11.00" fill="#000000">c_scope</text>
<polygon fill="none" stroke="#000000" points="166,-69 166,-91 250,-91 250,-69 166,-69"/>
<text text-anchor="start" x="169" y="-76.7" font-family="Helvetica,sans-Serif" font-size="11.00" fill="#000000">varchar[255]</text>
<polygon fill="none" stroke="#000000" points="10,-47 10,-69 166,-69 166,-47 10,-47"/>
<text text-anchor="start" x="30" y="-54.1" font-family="Helvetica,sans-Serif" font-size="11.00" fill="#000000">c_type</text>
<polygon fill="none" stroke="#000000" points="166,-47 166,-69 250,-69 250,-47 166,-47"/>
<text text-anchor="start" x="169" y="-54.7" font-family="Helvetica,sans-Serif" font-size="11.00" fill="#000000">varchar[36]</text>
<polygon fill="none" stroke="#000000" points="10,-25 10,-47 166,-47 166,-25 10,-25"/>
<text text-anchor="start" x="30" y="-32.1" font-family="Helvetica,sans-Serif" font-size="11.00" fill="#000000">c_current_value</text>
<polygon fill="none" stroke="#000000" points="166,-25 166,-47 250,-47 250,-25 166,-25"/>
<text text-anchor="start" x="169" y="-32.7" font-family="Helvetica,sans-Serif" font-size="11.00" fill="#000000">varchar[4096]</text>
<polygon fill="#ffffff" stroke="transparent" points="10,-6 10,-25 82,-25 82,-6 10,-6"/>
<polygon fill="none" stroke="#000000" points="10,-6 10,-25 82,-25 82,-6 10,-6"/>
<text text-anchor="start" x="13" y="-12.1" font-family="Helvetica,sans-Serif" font-size="11.00" fill="#000000">&lt; 0</text>
<polygon fill="#ffffff" stroke="transparent" points="82,-6 82,-25 166,-25 166,-6 82,-6"/>
<polygon fill="none" stroke="#000000" points="82,-6 82,-25 166,-25 166,-6 82,-6"/>
<text text-anchor="start" x="136.1105" y="-12.1" font-family="Helvetica,sans-Serif" font-size="11.00" fill="#000000">1 row</text>
<polygon fill="#ffffff" stroke="transparent" points="166,-6 166,-25 250,-25 250,-6 166,-6"/>
<polygon fill="none" stroke="#000000" points="166,-6 166,-25 250,-25 250,-6 166,-6"/>
<text text-anchor="start" x="231.4053" y="-12.1" font-family="Helvetica,sans-Serif" font-size="11.00" fill="#000000">0 &gt;</text>
<polygon fill="none" stroke="#000000" stroke-width="2" points="9,-5 9,-445 251,-445 251,-5 9,-5"/>
</a>
</g>
</g>
</g>
</svg>
