<?xml version="1.0" encoding="UTF-8" standalone="no"?>
<!DOCTYPE svg PUBLIC "-//W3C//DTD SVG 1.1//EN"
 "http://www.w3.org/Graphics/SVG/1.1/DTD/svg11.dtd">
<!-- Generated by graphviz version 2.40.1 (20161225.0304)
 -->
<!-- Title: oneDegreeRelationshipsDiagram Pages: 1 -->
<svg width="268pt" height="492pt"
 viewBox="0.00 0.00 268.00 492.20" xmlns="http://www.w3.org/2000/svg" xmlns:xlink="http://www.w3.org/1999/xlink">
<g id="graph0" class="graph" transform="scale(1 1) rotate(0) translate(4 488.2)">
<title>oneDegreeRelationshipsDiagram</title>
<polygon fill="#ffffff" stroke="transparent" points="-4,4 -4,-488.2 264,-488.2 264,4 -4,4"/>
<text text-anchor="middle" x="72.4936" y="-7.3" font-family="Helvetica,sans-Serif" font-size="11.00" fill="#000000">Generated by SchemaSpy</text>
<!-- cor_pref_preference -->
<g id="node1" class="node">
<title>cor_pref_preference</title>
<g id="a_node1"><a xlink:href="../../tables/cor_pref_preference.html" xlink:title="cor_pref_preference" target="_top">
<polygon fill="#ffffff" stroke="transparent" points="8,-38.2 8,-480.2 252,-480.2 252,-38.2 8,-38.2"/>
<polygon fill="#f5f5f5" stroke="transparent" points="10,-455.2 10,-478.2 250,-478.2 250,-455.2 10,-455.2"/>
<polygon fill="none" stroke="#000000" points="10,-455.2 10,-478.2 250,-478.2 250,-455.2 10,-455.2"/>
<text text-anchor="start" x="15" y="-463.8" font-family="Helvetica,sans-Serif" font-weight="bold" font-size="11.00" fill="#000000">cor_pref_preference</text>
<text text-anchor="start" x="215.0437" y="-463.3" font-family="Helvetica,sans-Serif" font-size="11.00" fill="#000000">[table]</text>
<polygon fill="none" stroke="#000000" points="10,-433.2 10,-455.2 166,-455.2 166,-433.2 10,-433.2"/>
<image xlink:href="../../images/primaryKeys.png" width="11px" height="12px" preserveAspectRatio="xMinYMin meet" x="15" y="-450.2"/>
<text text-anchor="start" x="30" y="-440.3" font-family="Helvetica,sans-Serif" font-size="11.00" fill="#000000">c_pk</text>
<polygon fill="none" stroke="#000000" points="166,-433.2 166,-455.2 250,-455.2 250,-433.2 166,-433.2"/>
<text text-anchor="start" x="169" y="-440.9" font-family="Helvetica,sans-Serif" font-size="11.00" fill="#000000">int8[19]</text>
<polygon fill="none" stroke="#000000" points="10,-411.2 10,-433.2 166,-433.2 166,-411.2 10,-411.2"/>
<text text-anchor="start" x="30" y="-418.3" font-family="Helvetica,sans-Serif" font-size="11.00" fill="#000000">c_created</text>
<polygon fill="none" stroke="#000000" points="166,-411.2 166,-433.2 250,-433.2 250,-411.2 166,-411.2"/>
<text text-anchor="start" x="168.8807" y="-418.9" font-family="Helvetica,sans-Serif" font-size="11.00" fill="#000000">timestamp[29,6]</text>
<polygon fill="none" stroke="#000000" points="10,-389.2 10,-411.2 166,-411.2 166,-389.2 10,-389.2"/>
<text text-anchor="start" x="30" y="-396.3" font-family="Helvetica,sans-Serif" font-size="11.00" fill="#000000">c_created_by</text>
<polygon fill="none" stroke="#000000" points="166,-389.2 166,-411.2 250,-411.2 250,-389.2 166,-389.2"/>
<text text-anchor="start" x="169" y="-396.9" font-family="Helvetica,sans-Serif" font-size="11.00" fill="#000000">varchar[255]</text>
<polygon fill="none" stroke="#000000" points="10,-367.2 10,-389.2 166,-389.2 166,-367.2 10,-367.2"/>
<text text-anchor="start" x="30" y="-374.3" font-family="Helvetica,sans-Serif" font-size="11.00" fill="#000000">c_updated_by</text>
<polygon fill="none" stroke="#000000" points="166,-367.2 166,-389.2 250,-389.2 250,-367.2 166,-367.2"/>
<text text-anchor="start" x="169" y="-374.9" font-family="Helvetica,sans-Serif" font-size="11.00" fill="#000000">varchar[255]</text>
<polygon fill="none" stroke="#000000" points="10,-345.2 10,-367.2 166,-367.2 166,-345.2 10,-345.2"/>
<text text-anchor="start" x="30" y="-352.3" font-family="Helvetica,sans-Serif" font-size="11.00" fill="#000000">c_updated</text>
<polygon fill="none" stroke="#000000" points="166,-345.2 166,-367.2 250,-367.2 250,-345.2 166,-345.2"/>
<text text-anchor="start" x="168.8807" y="-352.9" font-family="Helvetica,sans-Serif" font-size="11.00" fill="#000000">timestamp[29,6]</text>
<polygon fill="none" stroke="#000000" points="10,-323.2 10,-345.2 166,-345.2 166,-323.2 10,-323.2"/>
<text text-anchor="start" x="30" y="-330.3" font-family="Helvetica,sans-Serif" font-size="11.00" fill="#000000">c_ol</text>
<polygon fill="none" stroke="#000000" points="166,-323.2 166,-345.2 250,-345.2 250,-323.2 166,-323.2"/>
<text text-anchor="start" x="169" y="-330.9" font-family="Helvetica,sans-Serif" font-size="11.00" fill="#000000">int8[19]</text>
<polygon fill="#ffffff" stroke="transparent" points="10,-301.2 10,-323.2 166,-323.2 166,-301.2 10,-301.2"/>
<polygon fill="none" stroke="#000000" points="10,-301.2 10,-323.2 166,-323.2 166,-301.2 10,-301.2"/>
<text text-anchor="start" x="30" y="-308.3" font-family="Helvetica,sans-Serif" font-size="11.00" fill="#000000">c_pid</text>
<polygon fill="none" stroke="#000000" points="166,-301.2 166,-323.2 250,-323.2 250,-301.2 166,-301.2"/>
<text text-anchor="start" x="169" y="-308.9" font-family="Helvetica,sans-Serif" font-size="11.00" fill="#000000">varchar[255]</text>
<polygon fill="none" stroke="#000000" points="10,-279.2 10,-301.2 166,-301.2 166,-279.2 10,-279.2"/>
<text text-anchor="start" x="30" y="-286.3" font-family="Helvetica,sans-Serif" font-size="11.00" fill="#000000">c_def_value</text>
<polygon fill="none" stroke="#000000" points="166,-279.2 166,-301.2 250,-301.2 250,-279.2 166,-279.2"/>
<text text-anchor="start" x="169" y="-286.9" font-family="Helvetica,sans-Serif" font-size="11.00" fill="#000000">varchar[4096]</text>
<polygon fill="none" stroke="#000000" points="10,-257.2 10,-279.2 166,-279.2 166,-257.2 10,-257.2"/>
<text text-anchor="start" x="30" y="-264.3" font-family="Helvetica,sans-Serif" font-size="11.00" fill="#000000">c_description</text>
<polygon fill="none" stroke="#000000" points="166,-257.2 166,-279.2 250,-279.2 250,-257.2 166,-257.2"/>
<text text-anchor="start" x="169" y="-264.9" font-family="Helvetica,sans-Serif" font-size="11.00" fill="#000000">varchar[255]</text>
<polygon fill="none" stroke="#000000" points="10,-235.2 10,-257.2 166,-257.2 166,-235.2 10,-235.2"/>
<text text-anchor="start" x="30" y="-242.3" font-family="Helvetica,sans-Serif" font-size="11.00" fill="#000000">c_from_file</text>
<polygon fill="none" stroke="#000000" points="166,-235.2 166,-257.2 250,-257.2 250,-235.2 166,-235.2"/>
<text text-anchor="start" x="169" y="-242.9" font-family="Helvetica,sans-Serif" font-size="11.00" fill="#000000">bool[1]</text>
<polygon fill="none" stroke="#000000" points="10,-213.2 10,-235.2 166,-235.2 166,-213.2 10,-213.2"/>
<text text-anchor="start" x="30" y="-220.3" font-family="Helvetica,sans-Serif" font-size="11.00" fill="#000000">c_group_name</text>
<polygon fill="none" stroke="#000000" points="166,-213.2 166,-235.2 250,-235.2 250,-213.2 166,-213.2"/>
<text text-anchor="start" x="169" y="-220.9" font-family="Helvetica,sans-Serif" font-size="11.00" fill="#000000">varchar[36]</text>
<polygon fill="#ffffff" stroke="transparent" points="10,-191.2 10,-213.2 166,-213.2 166,-191.2 10,-191.2"/>
<polygon fill="none" stroke="#000000" points="10,-191.2 10,-213.2 166,-213.2 166,-191.2 10,-191.2"/>
<text text-anchor="start" x="30" y="-198.3" font-family="Helvetica,sans-Serif" font-size="11.00" fill="#000000">c_key</text>
<polygon fill="none" stroke="#000000" points="166,-191.2 166,-213.2 250,-213.2 250,-191.2 166,-191.2"/>
<text text-anchor="start" x="169" y="-198.9" font-family="Helvetica,sans-Serif" font-size="11.00" fill="#000000">varchar[60]</text>
<polygon fill="none" stroke="#000000" points="10,-169.2 10,-191.2 166,-191.2 166,-169.2 10,-169.2"/>
<text text-anchor="start" x="30" y="-176.3" font-family="Helvetica,sans-Serif" font-size="11.00" fill="#000000">c_max_value</text>
<polygon fill="none" stroke="#000000" points="166,-169.2 166,-191.2 250,-191.2 250,-169.2 166,-169.2"/>
<text text-anchor="start" x="169" y="-176.9" font-family="Helvetica,sans-Serif" font-size="11.00" fill="#000000">varchar[4096]</text>
<polygon fill="none" stroke="#000000" points="10,-147.2 10,-169.2 166,-169.2 166,-147.2 10,-147.2"/>
<text text-anchor="start" x="30" y="-154.3" font-family="Helvetica,sans-Serif" font-size="11.00" fill="#000000">c_min_value</text>
<polygon fill="none" stroke="#000000" points="166,-147.2 166,-169.2 250,-169.2 250,-147.2 166,-147.2"/>
<text text-anchor="start" x="169" y="-154.9" font-family="Helvetica,sans-Serif" font-size="11.00" fill="#000000">varchar[4096]</text>
<polygon fill="#ffffff" stroke="transparent" points="10,-125.2 10,-147.2 166,-147.2 166,-125.2 10,-125.2"/>
<polygon fill="none" stroke="#000000" points="10,-125.2 10,-147.2 166,-147.2 166,-125.2 10,-125.2"/>
<text text-anchor="start" x="30" y="-132.3" font-family="Helvetica,sans-Serif" font-size="11.00" fill="#000000">c_owner</text>
<polygon fill="none" stroke="#000000" points="166,-125.2 166,-147.2 250,-147.2 250,-125.2 166,-125.2"/>
<text text-anchor="start" x="169" y="-132.9" font-family="Helvetica,sans-Serif" font-size="11.00" fill="#000000">varchar[60]</text>
<polygon fill="none" stroke="#000000" points="10,-103.2 10,-125.2 166,-125.2 166,-103.2 10,-103.2"/>
<text text-anchor="start" x="30" y="-110.3" font-family="Helvetica,sans-Serif" font-size="11.00" fill="#000000">c_scope</text>
<polygon fill="none" stroke="#000000" points="166,-103.2 166,-125.2 250,-125.2 250,-103.2 166,-103.2"/>
<text text-anchor="start" x="169" y="-110.9" font-family="Helvetica,sans-Serif" font-size="11.00" fill="#000000">varchar[255]</text>
<polygon fill="none" stroke="#000000" points="10,-81.2 10,-103.2 166,-103.2 166,-81.2 10,-81.2"/>
<text text-anchor="start" x="30" y="-88.3" font-family="Helvetica,sans-Serif" font-size="11.00" fill="#000000">c_type</text>
<polygon fill="none" stroke="#000000" points="166,-81.2 166,-103.2 250,-103.2 250,-81.2 166,-81.2"/>
<text text-anchor="start" x="169" y="-88.9" font-family="Helvetica,sans-Serif" font-size="11.00" fill="#000000">varchar[36]</text>
<polygon fill="none" stroke="#000000" points="10,-59.2 10,-81.2 166,-81.2 166,-59.2 10,-59.2"/>
<text text-anchor="start" x="30" y="-66.3" font-family="Helvetica,sans-Serif" font-size="11.00" fill="#000000">c_current_value</text>
<polygon fill="none" stroke="#000000" points="166,-59.2 166,-81.2 250,-81.2 250,-59.2 166,-59.2"/>
<text text-anchor="start" x="169" y="-66.9" font-family="Helvetica,sans-Serif" font-size="11.00" fill="#000000">varchar[4096]</text>
<polygon fill="#ffffff" stroke="transparent" points="10,-40.2 10,-59.2 82,-59.2 82,-40.2 10,-40.2"/>
<polygon fill="none" stroke="#000000" points="10,-40.2 10,-59.2 82,-59.2 82,-40.2 10,-40.2"/>
<text text-anchor="start" x="13" y="-46.3" font-family="Helvetica,sans-Serif" font-size="11.00" fill="#000000">&lt; 0</text>
<polygon fill="#ffffff" stroke="transparent" points="82,-40.2 82,-59.2 166,-59.2 166,-40.2 82,-40.2"/>
<polygon fill="none" stroke="#000000" points="82,-40.2 82,-59.2 166,-59.2 166,-40.2 82,-40.2"/>
<text text-anchor="start" x="136.1105" y="-46.3" font-family="Helvetica,sans-Serif" font-size="11.00" fill="#000000">1 row</text>
<polygon fill="#ffffff" stroke="transparent" points="166,-40.2 166,-59.2 250,-59.2 250,-40.2 166,-40.2"/>
<polygon fill="none" stroke="#000000" points="166,-40.2 166,-59.2 250,-59.2 250,-40.2 166,-40.2"/>
<text text-anchor="start" x="231.4053" y="-46.3" font-family="Helvetica,sans-Serif" font-size="11.00" fill="#000000">0 &gt;</text>
<polygon fill="none" stroke="#000000" stroke-width="2" points="9,-39.2 9,-479.2 251,-479.2 251,-39.2 9,-39.2"/>
</a>
</g>
</g>
</g>
</svg>
